<svg width="26" height="24" viewBox="0 0 26 24" fill="none" xmlns="http://www.w3.org/2000/svg">
<path d="M20.1702 11.0549L19.1502 9.86992C18.9552 9.64492 18.7977 9.22492 18.7977 8.92492V7.64992C18.7977 6.85492 18.1452 6.20242 17.3502 6.20242H16.0752C15.7827 6.20242 15.3552 6.04492 15.1302 5.84992L13.9452 4.82992C13.4277 4.38742 12.5802 4.38742 12.0552 4.82992L10.8777 5.85742C10.6527 6.04492 10.2252 6.20242 9.93266 6.20242H8.63516C7.84016 6.20242 7.18766 6.85492 7.18766 7.64992V8.93242C7.18766 9.22492 7.03016 9.64492 6.84266 9.86992L5.83016 11.0624C5.39516 11.5799 5.39516 12.4199 5.83016 12.9374L6.84266 14.1299C7.03016 14.3549 7.18766 14.7749 7.18766 15.0674V16.3499C7.18766 17.1449 7.84016 17.7974 8.63516 17.7974H9.93266C10.2252 17.7974 10.6527 17.9549 10.8777 18.1499L12.0627 19.1699C12.5802 19.6124 13.4277 19.6124 13.9527 19.1699L15.1377 18.1499C15.3627 17.9549 15.7827 17.7974 16.0827 17.7974H17.3577C18.1527 17.7974 18.8052 17.1449 18.8052 16.3499V15.0749C18.8052 14.7824 18.9627 14.3549 19.1577 14.1299L20.1777 12.9449C20.6127 12.4274 20.6127 11.5724 20.1702 11.0549ZM16.1202 10.5824L12.4977 14.2049C12.3927 14.3099 12.2502 14.3699 12.1002 14.3699C11.9502 14.3699 11.8077 14.3099 11.7027 14.2049L9.88766 12.3899C9.67016 12.1724 9.67016 11.8124 9.88766 11.5949C10.1052 11.3774 10.4652 11.3774 10.6827 11.5949L12.1002 13.0124L15.3252 9.78742C15.5427 9.56992 15.9027 9.56992 16.1202 9.78742C16.3377 10.0049 16.3377 10.3649 16.1202 10.5824Z" fill="#272962"/>
</svg>
