<svg width="100" height="100" viewBox="0 0 100 100" fill="none" xmlns="http://www.w3.org/2000/svg">
<path d="M90.625 30.7188V84.375C90.625 86.0326 89.9665 87.6223 88.7944 88.7944C87.6223 89.9665 86.0326 90.625 84.375 90.625H34.375C32.7174 90.625 31.1277 89.9665 29.9556 88.7944C28.7835 87.6223 28.125 86.0326 28.125 84.375V15.625C28.125 13.9674 28.7835 12.3777 29.9556 11.2056C31.1277 10.0335 32.7174 9.375 34.375 9.375H69.2812C70.106 9.37435 70.9227 9.53693 71.6843 9.85337C72.4459 10.1698 73.1373 10.6339 73.7188 11.2188L88.7812 26.2813C89.3661 26.8627 89.8302 27.5541 90.1466 28.3157C90.4631 29.0773 90.6257 29.894 90.625 30.7188Z" fill="#D2E2F3"/>
<path d="M90.625 30.7188V31.25H75C73.3424 31.25 71.7527 30.5915 70.5806 29.4194C69.4085 28.2473 68.75 26.6576 68.75 25V9.375H69.2813C70.106 9.37435 70.9227 9.53693 71.6843 9.85337C72.4459 10.1698 73.1373 10.6339 73.7188 11.2188L88.7812 26.2813C89.3661 26.8627 89.8302 27.5541 90.1466 28.3157C90.4631 29.0773 90.6257 29.894 90.625 30.7188Z" fill="#76A6D6"/>
<path d="M31.25 81.25C43.3312 81.25 53.125 71.4562 53.125 59.375C53.125 47.2938 43.3312 37.5 31.25 37.5C19.1688 37.5 9.375 47.2938 9.375 59.375C9.375 71.4562 19.1688 81.25 31.25 81.25Z" fill="#E5013A"/>
<path d="M84.3753 92.9688H34.3753C32.0961 92.9688 29.9102 92.0634 28.2986 90.4517C26.6869 88.8401 25.7815 86.6542 25.7815 84.375V82.9688C20.4498 81.7334 15.6937 78.7286 12.2884 74.4441C8.88303 70.1596 7.0293 64.848 7.0293 59.375C7.0293 53.902 8.88303 48.5904 12.2884 44.3059C15.6937 40.0214 20.4498 37.0166 25.7815 35.7813V15.625C25.7815 13.3458 26.6869 11.16 28.2986 9.54832C29.9102 7.93668 32.0961 7.03126 34.3753 7.03126H69.2815C70.4142 7.02917 71.536 7.25181 72.582 7.68631C73.628 8.12081 74.5775 8.75852 75.3753 9.56251L90.4378 24.625C91.2608 25.4412 91.9095 26.416 92.3446 27.4904C92.7797 28.5647 92.9921 29.7162 92.969 30.875V84.375C92.969 86.6542 92.0636 88.8401 90.452 90.4517C88.8403 92.0634 86.6545 92.9688 84.3753 92.9688ZM30.469 83.5938V84.375C30.469 85.411 30.8806 86.4046 31.6131 87.1372C32.3457 87.8697 33.3393 88.2813 34.3753 88.2813H84.3753C85.4113 88.2813 86.4049 87.8697 87.1374 87.1372C87.87 86.4046 88.2815 85.411 88.2815 84.375V33.5938H75.0003C72.7211 33.5938 70.5352 32.6884 68.9236 31.0767C67.3119 29.4651 66.4065 27.2792 66.4065 25V11.7188H34.3753C33.3393 11.7188 32.3457 12.1303 31.6131 12.8629C30.8806 13.5954 30.469 14.589 30.469 15.625V35.1563H31.2503C37.6735 35.1563 43.8336 37.7079 48.3755 42.2498C52.9174 46.7917 55.469 52.9518 55.469 59.375C55.469 65.7982 52.9174 71.9584 48.3755 76.5003C43.8336 81.0422 37.6735 83.5938 31.2503 83.5938H30.469ZM31.2503 39.8438C27.3874 39.8438 23.6112 40.9893 20.3993 43.1354C17.1874 45.2815 14.684 48.3319 13.2058 51.9007C11.7275 55.4696 11.3407 59.3967 12.0943 63.1854C12.8479 66.9741 14.7081 70.4542 17.4396 73.1857C20.1711 75.9172 23.6512 77.7774 27.4399 78.531C31.2286 79.2846 35.1557 78.8978 38.7246 77.4195C42.2934 75.9413 45.3438 73.4379 47.4899 70.226C49.636 67.0141 50.7815 63.2379 50.7815 59.375C50.7815 54.195 48.7238 49.2272 45.061 45.5643C41.3981 41.9015 36.4303 39.8438 31.2503 39.8438ZM71.094 12.1563V25C71.094 26.036 71.5056 27.0296 72.2381 27.7622C72.9707 28.4947 73.9643 28.9063 75.0003 28.9063H87.844C87.6507 28.5515 87.4088 28.2254 87.1253 27.9375L72.0628 12.875C71.7749 12.5915 71.4488 12.3496 71.094 12.1563ZM78.1253 71.0938H62.5003C61.8787 71.0938 61.2825 70.8468 60.843 70.4073C60.4035 69.9678 60.1565 69.3716 60.1565 68.75C60.1565 68.1284 60.4035 67.5323 60.843 67.0927C61.2825 66.6532 61.8787 66.4063 62.5003 66.4063H78.1253C78.7469 66.4063 79.343 66.6532 79.7826 67.0927C80.2221 67.5323 80.469 68.1284 80.469 68.75C80.469 69.3716 80.2221 69.9678 79.7826 70.4073C79.343 70.8468 78.7469 71.0938 78.1253 71.0938ZM37.5003 67.9688C37.1923 67.9702 36.8872 67.9102 36.6028 67.7921C36.3184 67.674 36.0604 67.5004 35.844 67.2813L31.2503 62.6875L26.6565 67.2813C26.2122 67.6953 25.6246 67.9207 25.0174 67.9099C24.4102 67.8992 23.8309 67.6532 23.4015 67.2238C22.972 66.7944 22.7261 66.2151 22.7154 65.6079C22.7046 65.0007 22.93 64.4131 23.344 63.9688L27.9378 59.375L23.344 54.7813C22.93 54.337 22.7046 53.7493 22.7154 53.1421C22.7261 52.5349 22.972 51.9556 23.4015 51.5262C23.8309 51.0968 24.4102 50.8508 25.0174 50.8401C25.6246 50.8294 26.2122 51.0548 26.6565 51.4688L31.2503 56.0625L35.844 51.4688C36.2883 51.0548 36.876 50.8294 37.4832 50.8401C38.0904 50.8508 38.6697 51.0968 39.0991 51.5262C39.5285 51.9556 39.7745 52.5349 39.7852 53.1421C39.7959 53.7493 39.5705 54.337 39.1565 54.7813L34.5628 59.375L39.1565 63.9688C39.5954 64.4082 39.842 65.0039 39.842 65.625C39.842 66.2461 39.5954 66.8418 39.1565 67.2813C38.9401 67.5004 38.6822 67.674 38.3978 67.7921C38.1133 67.9102 37.8082 67.9702 37.5003 67.9688ZM78.1253 58.5938H65.6253C65.0037 58.5938 64.4075 58.3468 63.968 57.9073C63.5285 57.4678 63.2815 56.8716 63.2815 56.25C63.2815 55.6284 63.5285 55.0323 63.968 54.5927C64.4075 54.1532 65.0037 53.9063 65.6253 53.9063H78.1253C78.7469 53.9063 79.343 54.1532 79.7826 54.5927C80.2221 55.0323 80.469 55.6284 80.469 56.25C80.469 56.8716 80.2221 57.4678 79.7826 57.9073C79.343 58.3468 78.7469 58.5938 78.1253 58.5938ZM78.1253 46.0938H62.5003C61.8787 46.0938 61.2825 45.8468 60.843 45.4073C60.4035 44.9678 60.1565 44.3716 60.1565 43.75C60.1565 43.1284 60.4035 42.5323 60.843 42.0927C61.2825 41.6532 61.8787 41.4063 62.5003 41.4063H78.1253C78.7469 41.4063 79.343 41.6532 79.7826 42.0927C80.2221 42.5323 80.469 43.1284 80.469 43.75C80.469 44.3716 80.2221 44.9678 79.7826 45.4073C79.343 45.8468 78.7469 46.0938 78.1253 46.0938ZM56.2503 33.5938H46.8753C46.2537 33.5938 45.6575 33.3468 45.218 32.9073C44.7785 32.4678 44.5315 31.8716 44.5315 31.25C44.5315 30.6284 44.7785 30.0323 45.218 29.5927C45.6575 29.1532 46.2537 28.9063 46.8753 28.9063H56.2503C56.8719 28.9063 57.468 29.1532 57.9076 29.5927C58.3471 30.0323 58.594 30.6284 58.594 31.25C58.594 31.8716 58.3471 32.4678 57.9076 32.9073C57.468 33.3468 56.8719 33.5938 56.2503 33.5938Z" fill="#111111"/>
</svg>
