<svg width="432" height="32" viewBox="0 0 432 32" fill="none" xmlns="http://www.w3.org/2000/svg">
<g clip-path="url(#clip0_163_8320)">
<g clip-path="url(#clip1_163_8320)">
<path d="M16.7737 12.3495L12.9516 5.35449H18.4941L22.2749 12.2774L13.6728 26.6693L8.45996 26.7208L16.7737 12.3495Z" fill="#FDFDFF"/>
<path d="M8.10959 12.3497L4.28756 5.35461H9.83002L13.6108 12.2775L4.99839 26.6694L-0.204102 26.7209L8.10959 12.3497Z" fill="#FDFDFF"/>
<path d="M25.3753 12.2569L21.543 5.24121H27.0648L30.4439 11.7521L27.0648 18.0672L21.852 18.0775L25.3753 12.2569Z" fill="#FDFDFF"/>
<path d="M32.458 16.4349L34.7265 5.77551H39.6927C40.3671 5.77551 40.9452 5.90689 41.4532 6.17841C41.9525 6.44993 42.3466 6.8178 42.6356 7.29077C42.9159 7.76374 43.0648 8.30678 43.0648 8.92865C43.0648 9.61183 42.8809 10.2249 42.5218 10.7855C42.1627 11.3461 41.6722 11.784 41.0678 12.1168C40.4547 12.4497 39.7803 12.6161 39.027 12.6161H35.8301L35.0243 16.4349H32.458ZM36.2943 10.4527H38.9745C39.2548 10.4527 39.5088 10.3914 39.7277 10.2775C39.9467 10.1636 40.1219 10.006 40.2445 9.80452C40.3671 9.60307 40.4372 9.3841 40.4372 9.13886C40.4372 8.79727 40.3321 8.51699 40.1131 8.31554C39.8942 8.11409 39.6051 8.00899 39.2373 8.00899H36.8198L36.2943 10.4527Z" fill="#FDFDFF"/>
<path d="M45.3333 16.5137C44.5013 16.5137 43.8356 16.3123 43.3451 15.9006C42.8546 15.4977 42.6094 14.9547 42.6094 14.2715C42.6094 13.7109 42.7495 13.238 43.021 12.8438C43.2926 12.4497 43.6867 12.1431 44.2035 11.9329C44.7202 11.7227 45.3246 11.6088 46.0428 11.6088C46.3844 11.6088 46.7347 11.6351 47.0851 11.6964C47.4354 11.749 47.777 11.8278 48.1011 11.9329L48.1449 11.7052C48.25 11.2322 48.1712 10.8731 47.9084 10.6279C47.6456 10.3914 47.2165 10.2687 46.6033 10.2687C46.3318 10.2687 46.0165 10.3038 45.6662 10.3826C45.3158 10.4614 44.8866 10.5841 44.3786 10.7592L43.8006 8.92866C44.4224 8.69218 45.0093 8.52576 45.5698 8.4119C46.1304 8.29804 46.6559 8.24548 47.1551 8.24548C48.0047 8.24548 48.7142 8.38562 49.266 8.65714C49.8178 8.92866 50.2119 9.32281 50.4309 9.83957C50.6499 10.3563 50.6937 10.9694 50.536 11.6877L49.5288 16.4436H47.1376L47.2252 16.0057C46.9099 16.1896 46.6033 16.321 46.2968 16.3998C45.9815 16.4699 45.6662 16.5137 45.3333 16.5137ZM46.2004 14.8058C46.4457 14.8058 46.6734 14.7795 46.9011 14.7182C47.1201 14.6656 47.3391 14.5868 47.5405 14.4817L47.7683 13.4306C47.2603 13.2642 46.761 13.1854 46.2618 13.1854C45.8238 13.1854 45.491 13.2642 45.2457 13.4131C45.0093 13.562 44.8866 13.781 44.8866 14.07C44.8866 14.2978 45.0005 14.4729 45.237 14.6043C45.4735 14.7357 45.7888 14.8058 46.2004 14.8058Z" fill="#FDFDFF"/>
<path d="M51.4035 19.6931C51.1495 19.6931 50.913 19.6756 50.6853 19.6493C50.4576 19.6231 50.2473 19.5793 50.0459 19.5267L50.4838 17.4421C50.5889 17.4684 50.7028 17.4947 50.8254 17.5122C50.948 17.5297 51.0969 17.5385 51.2634 17.5385C51.6312 17.5385 51.9553 17.4596 52.2356 17.3108C52.5159 17.1619 52.7611 16.9166 52.9538 16.5925L53.0414 16.4436L51.7188 8.38562H54.2939L54.9946 13.6584L58.1915 8.38562H60.8279L55.2398 17.2845C54.7055 18.1516 54.1362 18.7647 53.5319 19.1413C52.9363 19.5092 52.2268 19.6931 51.4035 19.6931Z" fill="#FDFDFF"/>
<path d="M63.999 16.6014C63.2282 16.6014 62.4925 16.4787 61.7918 16.2423C61.0911 16.0058 60.5043 15.6817 60.04 15.2788L61.3801 13.6935C61.8356 14.0526 62.2823 14.3153 62.7114 14.4905C63.1406 14.6657 63.5786 14.7533 64.0165 14.7533C64.3756 14.7533 64.6559 14.692 64.8661 14.5693C65.0763 14.4467 65.1902 14.2891 65.1902 14.0964C65.1902 13.9562 65.1289 13.8336 65.0062 13.746C64.8836 13.6584 64.7084 13.5796 64.472 13.5358L62.9304 13.203C62.2735 13.0628 61.7655 12.7913 61.4064 12.4059C61.0473 12.0118 60.8721 11.5301 60.8721 10.952C60.8721 10.3914 61.0035 9.9097 61.2663 9.51556C61.529 9.11266 61.9056 8.8061 62.4049 8.58713C62.8954 8.36817 63.4822 8.26306 64.1654 8.26306C64.8398 8.26306 65.4792 8.36817 66.1011 8.58713C66.7229 8.79734 67.266 9.1039 67.7302 9.48928L66.4076 10.9783C66.0047 10.6805 65.5931 10.4615 65.1902 10.3038C64.7873 10.1549 64.3844 10.0761 63.999 10.0761C63.6924 10.0761 63.4559 10.1287 63.2808 10.225C63.1056 10.3301 63.018 10.4703 63.018 10.6629C63.018 10.8118 63.0793 10.9432 63.2107 11.0396C63.3333 11.1359 63.5523 11.2147 63.8413 11.2761L65.3829 11.6089C66.0573 11.749 66.574 12.0118 66.9419 12.3972C67.3098 12.7826 67.4937 13.2468 67.4937 13.7986C67.4937 14.3241 67.3448 14.8058 67.0383 15.2262C66.7317 15.6467 66.32 15.9882 65.7858 16.2335C65.269 16.4787 64.6734 16.6014 63.999 16.6014Z" fill="#FDFDFF"/>
<path d="M67.9141 16.4348L70.1826 5.77549L72.7138 5.24121L71.3124 11.819L74.9648 8.37683H77.9078L73.397 12.4321L76.4275 16.4348H73.5196L71.0672 12.9752L70.3402 16.4348H67.9141Z" fill="#FDFDFF"/>
<path d="M77.592 19.6931C77.338 19.6931 77.1015 19.6756 76.8738 19.6493C76.646 19.6231 76.4358 19.5793 76.2344 19.5267L76.6723 17.4421C76.7774 17.4684 76.8913 17.4947 77.0139 17.5122C77.1365 17.5297 77.2854 17.5385 77.4518 17.5385C77.8197 17.5385 78.1438 17.4596 78.4241 17.3108C78.7043 17.1619 78.9496 16.9166 79.1423 16.5925L79.2299 16.4436L77.9073 8.38562H80.4824L81.183 13.6584L84.38 8.38562H87.0164L81.4283 17.2845C80.894 18.1516 80.3247 18.7647 79.7203 19.1413C79.1247 19.5092 78.4153 19.6931 77.592 19.6931Z" fill="#FDFDFF"/>
<path d="M33.271 25.4117H34.0544C34.256 25.4117 34.4427 25.377 34.6146 25.3076C34.7865 25.2382 34.9369 25.1407 35.0658 25.0151C35.1947 24.8895 35.2938 24.7424 35.3632 24.5739C35.4359 24.4053 35.4723 24.2219 35.4723 24.0236C35.4723 23.8253 35.4359 23.6418 35.3632 23.4733C35.2938 23.3047 35.1947 23.1576 35.0658 23.032C34.9369 22.9064 34.7865 22.8089 34.6146 22.7395C34.4427 22.6701 34.256 22.6354 34.0544 22.6354H33.271V25.4117ZM32.8893 25.7588V22.2883H34.0345C34.299 22.2883 34.5419 22.3313 34.7633 22.4172C34.9848 22.5032 35.1765 22.6238 35.3384 22.7792C35.5037 22.9345 35.6309 23.1179 35.7202 23.3295C35.8127 23.541 35.859 23.7724 35.859 24.0236C35.859 24.2748 35.8144 24.5061 35.7251 24.7177C35.6359 24.9292 35.5087 25.1126 35.3434 25.268C35.1814 25.4233 34.9881 25.544 34.7633 25.6299C34.5419 25.7158 34.299 25.7588 34.0345 25.7588H32.8893ZM36.3881 25.7588V23.2749H36.755V25.7588H36.3881ZM36.5716 22.799C36.5055 22.799 36.4476 22.7742 36.3981 22.7246C36.3485 22.675 36.3237 22.6172 36.3237 22.5511C36.3237 22.4817 36.3485 22.4239 36.3981 22.3776C36.4476 22.328 36.5055 22.3032 36.5716 22.3032C36.641 22.3032 36.6988 22.328 36.7451 22.3776C36.7947 22.4239 36.8195 22.4817 36.8195 22.5511C36.8195 22.6172 36.7947 22.675 36.7451 22.7246C36.6988 22.7742 36.641 22.799 36.5716 22.799ZM38.5904 26.8198C38.4185 26.8198 38.2483 26.7966 38.0797 26.7503C37.9111 26.7074 37.7575 26.6446 37.6186 26.5619L37.7773 26.2744C37.926 26.3537 38.0632 26.4116 38.1888 26.4479C38.3177 26.4843 38.4466 26.5025 38.5755 26.5025C38.8102 26.5025 38.9886 26.4463 39.1109 26.3339C39.2332 26.2215 39.2944 26.0563 39.2944 25.8381V25.4911C39.0663 25.6828 38.8035 25.7786 38.5061 25.7786C38.278 25.7786 38.0698 25.7224 37.8814 25.6101C37.693 25.4977 37.5426 25.3456 37.4302 25.1539C37.3212 24.9589 37.2666 24.7424 37.2666 24.5045C37.2666 24.2665 37.3212 24.0517 37.4302 23.86C37.5426 23.665 37.693 23.5113 37.8814 23.3989C38.0698 23.2865 38.2813 23.2303 38.516 23.2303C38.6581 23.2303 38.7953 23.2551 38.9275 23.3047C39.063 23.3543 39.1869 23.427 39.2993 23.5228V23.2749H39.6612V25.8332C39.6612 26.1505 39.5687 26.3934 39.3836 26.5619C39.1985 26.7338 38.9341 26.8198 38.5904 26.8198ZM38.5358 25.4564C38.6945 25.4564 38.8399 25.4266 38.9721 25.3671C39.1043 25.3076 39.2117 25.2233 39.2944 25.1143V23.8947C39.2117 23.7889 39.1027 23.7063 38.9671 23.6468C38.8349 23.5873 38.6912 23.5575 38.5358 23.5575C38.364 23.5575 38.2086 23.5988 38.0698 23.6815C37.9343 23.7641 37.8269 23.8781 37.7475 24.0236C37.6682 24.1657 37.6285 24.326 37.6285 24.5045C37.6285 24.683 37.6682 24.8449 37.7475 24.9903C37.8302 25.1325 37.9392 25.2465 38.0747 25.3324C38.2136 25.415 38.3673 25.4564 38.5358 25.4564ZM40.2856 25.7588V23.2749H40.6525V25.7588H40.2856ZM40.469 22.799C40.4029 22.799 40.3451 22.7742 40.2955 22.7246C40.2459 22.675 40.2212 22.6172 40.2212 22.5511C40.2212 22.4817 40.2459 22.4239 40.2955 22.3776C40.3451 22.328 40.4029 22.3032 40.469 22.3032C40.5385 22.3032 40.5963 22.328 40.6426 22.3776C40.6921 22.4239 40.7169 22.4817 40.7169 22.5511C40.7169 22.6172 40.6921 22.675 40.6426 22.7246C40.5963 22.7742 40.5385 22.799 40.469 22.799ZM42.2548 25.8084C42.04 25.8084 41.8747 25.7571 41.759 25.6547C41.6434 25.5522 41.5855 25.4035 41.5855 25.2085V23.5873H41.0501V23.2749H41.5855V22.6453L41.9474 22.5511V23.2749H42.6961V23.5873H41.9474V25.1143C41.9474 25.2465 41.9772 25.3423 42.0367 25.4018C42.0962 25.458 42.1937 25.4861 42.3292 25.4861C42.3986 25.4861 42.4597 25.4812 42.5126 25.4712C42.5688 25.4613 42.6283 25.4448 42.6911 25.4217V25.7439C42.6283 25.7671 42.5572 25.7836 42.4779 25.7935C42.4019 25.8034 42.3275 25.8084 42.2548 25.8084ZM43.8722 25.8034C43.6904 25.8034 43.5301 25.772 43.3913 25.7092C43.2558 25.6464 43.1484 25.5588 43.0691 25.4464C42.993 25.3341 42.955 25.2035 42.955 25.0548C42.955 24.8201 43.0443 24.635 43.2227 24.4995C43.4012 24.364 43.6425 24.2962 43.9466 24.2962C44.2143 24.2962 44.4572 24.3524 44.6754 24.4648V24.1376C44.6754 23.9393 44.6192 23.7905 44.5068 23.6914C44.3944 23.5889 44.2308 23.5377 44.016 23.5377C43.8937 23.5377 43.7698 23.5559 43.6442 23.5922C43.5219 23.6253 43.3864 23.6798 43.2376 23.7558L43.0988 23.4733C43.2773 23.3873 43.4425 23.3245 43.5946 23.2849C43.7466 23.2452 43.8987 23.2254 44.0507 23.2254C44.3647 23.2254 44.606 23.2997 44.7745 23.4485C44.9464 23.5972 45.0323 23.8104 45.0323 24.088V25.7588H44.6754V25.5159C44.563 25.6117 44.4391 25.6844 44.3035 25.734C44.1713 25.7803 44.0276 25.8034 43.8722 25.8034ZM43.307 25.0449C43.307 25.1837 43.3649 25.2977 43.4806 25.387C43.5995 25.4729 43.7516 25.5159 43.9367 25.5159C44.0854 25.5159 44.2209 25.4927 44.3432 25.4464C44.4655 25.4002 44.5762 25.3275 44.6754 25.2283V24.7623C44.5729 24.6929 44.4638 24.6433 44.3482 24.6135C44.2325 24.5805 44.1019 24.564 43.9565 24.564C43.7582 24.564 43.5995 24.6086 43.4806 24.6978C43.3649 24.7838 43.307 24.8994 43.307 25.0449ZM45.6452 25.7588V22.2883L46.0121 22.2041V25.7588H45.6452ZM47.7723 25.7588V22.2883H49.2795C49.5075 22.2883 49.7042 22.3297 49.8695 22.4123C50.038 22.4949 50.1686 22.6123 50.2611 22.7643C50.3537 22.913 50.3999 23.0882 50.3999 23.2898C50.3999 23.4914 50.3537 23.6683 50.2611 23.8203C50.1686 23.969 50.038 24.0864 49.8695 24.1723C49.7009 24.2549 49.5042 24.2962 49.2795 24.2962H48.1541V25.7588H47.7723ZM48.1541 23.9641H49.2497C49.4844 23.9641 49.6712 23.9046 49.81 23.7856C49.9488 23.6633 50.0182 23.4997 50.0182 23.2948C50.0182 23.0899 49.9488 22.9279 49.81 22.8089C49.6712 22.6899 49.4844 22.6304 49.2497 22.6304H48.1541V23.9641ZM51.5461 25.8034C51.3643 25.8034 51.204 25.772 51.0652 25.7092C50.9297 25.6464 50.8223 25.5588 50.743 25.4464C50.6669 25.3341 50.6289 25.2035 50.6289 25.0548C50.6289 24.8201 50.7182 24.635 50.8967 24.4995C51.0751 24.364 51.3164 24.2962 51.6205 24.2962C51.8882 24.2962 52.1311 24.3524 52.3493 24.4648V24.1376C52.3493 23.9393 52.2931 23.7905 52.1807 23.6914C52.0683 23.5889 51.9047 23.5377 51.6899 23.5377C51.5676 23.5377 51.4437 23.5559 51.3181 23.5922C51.1958 23.6253 51.0603 23.6798 50.9115 23.7558L50.7727 23.4733C50.9512 23.3873 51.1165 23.3245 51.2685 23.2849C51.4205 23.2452 51.5726 23.2254 51.7246 23.2254C52.0386 23.2254 52.2799 23.2997 52.4484 23.4485C52.6203 23.5972 52.7062 23.8104 52.7062 24.088V25.7588H52.3493V25.5159C52.2369 25.6117 52.113 25.6844 51.9775 25.734C51.8452 25.7803 51.7015 25.8034 51.5461 25.8034ZM50.9809 25.0449C50.9809 25.1837 51.0388 25.2977 51.1545 25.387C51.2734 25.4729 51.4255 25.5159 51.6106 25.5159C51.7593 25.5159 51.8948 25.4927 52.0171 25.4464C52.1394 25.4002 52.2501 25.3275 52.3493 25.2283V24.7623C52.2468 24.6929 52.1378 24.6433 52.0221 24.6135C51.9064 24.5805 51.7758 24.564 51.6304 24.564C51.4321 24.564 51.2734 24.6086 51.1545 24.6978C51.0388 24.7838 50.9809 24.8994 50.9809 25.0449ZM53.3748 26.8198C53.3286 26.8198 53.284 26.8164 53.241 26.8098C53.2013 26.8065 53.1683 26.8016 53.1418 26.795V26.4628C53.198 26.476 53.2674 26.4826 53.3501 26.4826C53.5682 26.4826 53.7335 26.3537 53.8458 26.0959L53.9946 25.7538L52.9832 23.2749H53.3897L54.1929 25.3126L55.0605 23.2749H55.4571L54.2177 26.1455C54.1483 26.3041 54.0739 26.433 53.9946 26.5322C53.9152 26.6314 53.8244 26.7041 53.7219 26.7503C53.6227 26.7966 53.5071 26.8198 53.3748 26.8198ZM55.798 25.7588V23.2749H56.1649V23.5476C56.3533 23.3328 56.5962 23.2254 56.8937 23.2254C57.0689 23.2254 57.2242 23.2667 57.3597 23.3493C57.4953 23.4286 57.601 23.5377 57.677 23.6765C57.7795 23.5245 57.9018 23.4121 58.0439 23.3394C58.186 23.2634 58.348 23.2254 58.5298 23.2254C58.7116 23.2254 58.8702 23.2667 59.0057 23.3493C59.1412 23.4286 59.247 23.541 59.323 23.6864C59.4023 23.8286 59.442 23.9955 59.442 24.1872V25.7588H59.0801V24.2615C59.0801 24.0401 59.0223 23.8666 58.9066 23.741C58.7909 23.6121 58.6339 23.5476 58.4356 23.5476C58.3001 23.5476 58.1761 23.5823 58.0637 23.6517C57.9514 23.7178 57.8555 23.8186 57.7762 23.9542C57.7828 23.9905 57.7878 24.0285 57.7911 24.0682C57.7977 24.1045 57.801 24.1442 57.801 24.1872V25.7588H57.4391V24.2615C57.4391 24.0401 57.3812 23.8666 57.2655 23.741C57.1499 23.6121 56.9945 23.5476 56.7995 23.5476C56.6673 23.5476 56.5467 23.579 56.4376 23.6418C56.3318 23.7013 56.2409 23.7905 56.1649 23.9095V25.7588H55.798ZM61.2237 25.8034C60.9857 25.8034 60.7693 25.7472 60.5742 25.6348C60.3825 25.5192 60.2289 25.3638 60.1132 25.1688C60.0008 24.9738 59.9446 24.7557 59.9446 24.5144C59.9446 24.2764 59.9991 24.0616 60.1082 23.8699C60.2173 23.6749 60.3644 23.5212 60.5495 23.4088C60.7345 23.2931 60.9411 23.2353 61.1692 23.2353C61.3906 23.2353 61.5889 23.2931 61.7641 23.4088C61.9426 23.5212 62.0831 23.6749 62.1855 23.8699C62.2913 24.0616 62.3442 24.2764 62.3442 24.5144V24.6284H60.3065C60.3264 24.7904 60.3776 24.9358 60.4602 25.0647C60.5462 25.1936 60.6569 25.2961 60.7924 25.3721C60.9279 25.4448 61.0766 25.4812 61.2386 25.4812C61.3675 25.4812 61.4931 25.4613 61.6154 25.4217C61.7377 25.382 61.8401 25.3258 61.9228 25.2531L62.1508 25.496C62.012 25.5985 61.8666 25.6762 61.7145 25.729C61.5658 25.7786 61.4022 25.8034 61.2237 25.8034ZM60.3164 24.3359H61.9773C61.9575 24.1872 61.9079 24.055 61.8286 23.9393C61.7525 23.8203 61.6567 23.7278 61.541 23.6616C61.4253 23.5922 61.2981 23.5575 61.1593 23.5575C61.0171 23.5575 60.8866 23.5906 60.7676 23.6567C60.6486 23.7228 60.5495 23.8153 60.4701 23.9343C60.3908 24.05 60.3396 24.1839 60.3164 24.3359ZM62.8571 25.7588V23.2749H63.2239V23.5674C63.419 23.3394 63.6801 23.2254 64.0073 23.2254C64.1957 23.2254 64.3609 23.2667 64.5031 23.3493C64.6485 23.4286 64.7609 23.541 64.8402 23.6864C64.9228 23.8286 64.9641 23.9955 64.9641 24.1872V25.7588H64.6022V24.2615C64.6022 24.0401 64.5394 23.8666 64.4138 23.741C64.2915 23.6121 64.123 23.5476 63.9081 23.5476C63.7594 23.5476 63.6272 23.5807 63.5115 23.6468C63.3958 23.7129 63.3 23.8071 63.2239 23.9294V25.7588H62.8571ZM66.4821 25.8084C66.2673 25.8084 66.102 25.7571 65.9863 25.6547C65.8706 25.5522 65.8128 25.4035 65.8128 25.2085V23.5873H65.2774V23.2749H65.8128V22.6453L66.1747 22.5511V23.2749H66.9233V23.5873H66.1747V25.1143C66.1747 25.2465 66.2045 25.3423 66.264 25.4018C66.3235 25.458 66.421 25.4861 66.5565 25.4861C66.6259 25.4861 66.687 25.4812 66.7399 25.4712C66.7961 25.4613 66.8556 25.4448 66.9184 25.4217V25.7439C66.8556 25.7671 66.7845 25.7836 66.7052 25.7935C66.6292 25.8034 66.5548 25.8084 66.4821 25.8084ZM69.5761 25.8084C69.3018 25.8084 69.039 25.7538 68.7879 25.6448C68.5367 25.5324 68.3152 25.3721 68.1235 25.1639L68.3764 24.9011C68.5548 25.0928 68.7449 25.2366 68.9465 25.3324C69.1514 25.4283 69.3663 25.4762 69.591 25.4762C69.7728 25.4762 69.9331 25.4481 70.0719 25.3919C70.214 25.3324 70.3248 25.2514 70.4041 25.149C70.4834 25.0432 70.5231 24.9242 70.5231 24.792C70.5231 24.6135 70.4603 24.4764 70.3347 24.3805C70.2124 24.2847 70.0091 24.2136 69.7249 24.1673L69.2241 24.088C68.8903 24.0318 68.6441 23.9327 68.4854 23.7905C68.3268 23.6484 68.2475 23.4551 68.2475 23.2105C68.2475 23.0188 68.2987 22.8502 68.4011 22.7048C68.5036 22.5594 68.6457 22.447 68.8275 22.3677C69.0126 22.285 69.2258 22.2437 69.4671 22.2437C69.7117 22.2437 69.9513 22.2834 70.186 22.3627C70.4239 22.442 70.6404 22.5561 70.8354 22.7048L70.6173 23.0023C70.2372 22.7147 69.8488 22.5709 69.4522 22.5709C69.2869 22.5709 69.1415 22.5974 69.0159 22.6503C68.8903 22.6998 68.7928 22.7709 68.7234 22.8634C68.654 22.9527 68.6193 23.0585 68.6193 23.1807C68.6193 23.3427 68.6738 23.4666 68.7829 23.5526C68.892 23.6385 69.0721 23.7013 69.3233 23.741L69.8191 23.8203C70.1992 23.8831 70.4752 23.9905 70.647 24.1426C70.8189 24.2913 70.9048 24.5012 70.9048 24.7722C70.9048 24.9738 70.8486 25.1539 70.7363 25.3126C70.6239 25.4679 70.4669 25.5902 70.2653 25.6795C70.067 25.7654 69.8373 25.8084 69.5761 25.8084ZM72.5576 25.8084C72.323 25.8084 72.1081 25.7522 71.9131 25.6398C71.7214 25.5241 71.5694 25.3688 71.457 25.1738C71.3446 24.9788 71.2884 24.7606 71.2884 24.5193C71.2884 24.2781 71.3446 24.0599 71.457 23.8649C71.5694 23.6699 71.7214 23.5162 71.9131 23.4038C72.1081 23.2882 72.323 23.2303 72.5576 23.2303C72.7956 23.2303 73.0104 23.2882 73.2021 23.4038C73.3938 23.5162 73.5459 23.6699 73.6583 23.8649C73.7706 24.0599 73.8268 24.2781 73.8268 24.5193C73.8268 24.7606 73.7706 24.9788 73.6583 25.1738C73.5459 25.3688 73.3938 25.5241 73.2021 25.6398C73.0104 25.7522 72.7956 25.8084 72.5576 25.8084ZM72.5576 25.4812C72.7262 25.4812 72.8782 25.4382 73.0137 25.3523C73.1526 25.2663 73.2616 25.1506 73.341 25.0052C73.4236 24.8598 73.4649 24.6978 73.4649 24.5193C73.4649 24.3376 73.4236 24.1756 73.341 24.0335C73.2616 23.8881 73.1526 23.7724 73.0137 23.6864C72.8782 23.6005 72.7262 23.5575 72.5576 23.5575C72.3891 23.5575 72.2354 23.6005 72.0966 23.6864C71.961 23.7724 71.852 23.8881 71.7693 24.0335C71.69 24.1756 71.6504 24.3376 71.6504 24.5193C71.6504 24.6978 71.69 24.8598 71.7693 25.0052C71.852 25.1506 71.961 25.2663 72.0966 25.3523C72.2354 25.4382 72.3891 25.4812 72.5576 25.4812ZM74.3365 25.7588V22.2883L74.7033 22.2041V25.7588H74.3365ZM76.2809 25.8084C76.0925 25.8084 75.9256 25.7687 75.7801 25.6894C75.6347 25.6068 75.5207 25.4944 75.4381 25.3523C75.3587 25.2068 75.3191 25.0383 75.3191 24.8466V23.2749H75.681V24.7722C75.681 24.9936 75.7438 25.1688 75.8694 25.2977C75.995 25.4233 76.1635 25.4861 76.3751 25.4861C76.5238 25.4861 76.656 25.4531 76.7717 25.387C76.8907 25.3175 76.9865 25.2217 77.0593 25.0994V23.2749H77.4261V25.7588H77.0593V25.4712C76.8642 25.696 76.6048 25.8084 76.2809 25.8084ZM79.0266 25.8084C78.8118 25.8084 78.6465 25.7571 78.5309 25.6547C78.4152 25.5522 78.3573 25.4035 78.3573 25.2085V23.5873H77.8219V23.2749H78.3573V22.6453L78.7193 22.5511V23.2749H79.4679V23.5873H78.7193V25.1143C78.7193 25.2465 78.749 25.3423 78.8085 25.4018C78.868 25.458 78.9655 25.4861 79.101 25.4861C79.1704 25.4861 79.2316 25.4812 79.2844 25.4712C79.3406 25.4613 79.4001 25.4448 79.4629 25.4217V25.7439C79.4001 25.7671 79.3291 25.7836 79.2497 25.7935C79.1737 25.8034 79.0994 25.8084 79.0266 25.8084ZM79.8607 25.7588V23.2749H80.2276V25.7588H79.8607ZM80.0441 22.799C79.978 22.799 79.9202 22.7742 79.8706 22.7246C79.821 22.675 79.7963 22.6172 79.7963 22.5511C79.7963 22.4817 79.821 22.4239 79.8706 22.3776C79.9202 22.328 79.978 22.3032 80.0441 22.3032C80.1136 22.3032 80.1714 22.328 80.2177 22.3776C80.2672 22.4239 80.292 22.4817 80.292 22.5511C80.292 22.6172 80.2672 22.675 80.2177 22.7246C80.1714 22.7742 80.1136 22.799 80.0441 22.799ZM82.0084 25.8084C81.7737 25.8084 81.5589 25.7522 81.3639 25.6398C81.1722 25.5241 81.0201 25.3688 80.9078 25.1738C80.7954 24.9788 80.7392 24.7606 80.7392 24.5193C80.7392 24.2781 80.7954 24.0599 80.9078 23.8649C81.0201 23.6699 81.1722 23.5162 81.3639 23.4038C81.5589 23.2882 81.7737 23.2303 82.0084 23.2303C82.2464 23.2303 82.4612 23.2882 82.6529 23.4038C82.8446 23.5162 82.9966 23.6699 83.109 23.8649C83.2214 24.0599 83.2776 24.2781 83.2776 24.5193C83.2776 24.7606 83.2214 24.9788 83.109 25.1738C82.9966 25.3688 82.8446 25.5241 82.6529 25.6398C82.4612 25.7522 82.2464 25.8084 82.0084 25.8084ZM82.0084 25.4812C82.177 25.4812 82.329 25.4382 82.4645 25.3523C82.6033 25.2663 82.7124 25.1506 82.7917 25.0052C82.8744 24.8598 82.9157 24.6978 82.9157 24.5193C82.9157 24.3376 82.8744 24.1756 82.7917 24.0335C82.7124 23.8881 82.6033 23.7724 82.4645 23.6864C82.329 23.6005 82.177 23.5575 82.0084 23.5575C81.8398 23.5575 81.6861 23.6005 81.5473 23.6864C81.4118 23.7724 81.3027 23.8881 81.2201 24.0335C81.1408 24.1756 81.1011 24.3376 81.1011 24.5193C81.1011 24.6978 81.1408 24.8598 81.2201 25.0052C81.3027 25.1506 81.4118 25.2663 81.5473 25.3523C81.6861 25.4382 81.8398 25.4812 82.0084 25.4812ZM83.7872 25.7588V23.2749H84.1541V23.5674C84.3491 23.3394 84.6102 23.2254 84.9374 23.2254C85.1258 23.2254 85.2911 23.2667 85.4332 23.3493C85.5786 23.4286 85.691 23.541 85.7703 23.6864C85.853 23.8286 85.8943 23.9955 85.8943 24.1872V25.7588H85.5324V24.2615C85.5324 24.0401 85.4696 23.8666 85.344 23.741C85.2217 23.6121 85.0531 23.5476 84.8383 23.5476C84.6895 23.5476 84.5573 23.5807 84.4417 23.6468C84.326 23.7129 84.2301 23.8071 84.1541 23.9294V25.7588H83.7872ZM87.3014 25.8084C87.0965 25.8084 86.9032 25.7753 86.7214 25.7092C86.5429 25.6398 86.3876 25.544 86.2554 25.4217L86.4785 25.1837C86.5941 25.2895 86.7214 25.3721 86.8602 25.4316C86.999 25.4878 87.1411 25.5159 87.2866 25.5159C87.4849 25.5159 87.6468 25.4745 87.7724 25.3919C87.898 25.3093 87.9608 25.2019 87.9608 25.0697C87.9608 24.9606 87.9228 24.8763 87.8468 24.8168C87.7741 24.754 87.6584 24.711 87.4998 24.6879L87.0684 24.6284C86.8205 24.5921 86.6355 24.5177 86.5132 24.4053C86.3942 24.2929 86.3347 24.1409 86.3347 23.9492C86.3347 23.8104 86.3743 23.6864 86.4537 23.5774C86.533 23.4683 86.6421 23.3824 86.7809 23.3196C86.923 23.2568 87.085 23.2254 87.2667 23.2254C87.4485 23.2254 87.6187 23.2518 87.7774 23.3047C87.936 23.3576 88.0914 23.4402 88.2434 23.5526L88.0501 23.8005C87.9113 23.7046 87.7757 23.6352 87.6435 23.5922C87.5146 23.546 87.3824 23.5228 87.2469 23.5228C87.075 23.5228 86.9362 23.5608 86.8305 23.6369C86.7247 23.7129 86.6718 23.812 86.6718 23.9343C86.6718 24.0467 86.7082 24.1326 86.7809 24.1921C86.8536 24.2483 86.9709 24.288 87.1329 24.3111L87.5642 24.3706C87.8121 24.4037 87.9972 24.4764 88.1195 24.5888C88.2451 24.7011 88.3079 24.8548 88.3079 25.0498C88.3079 25.1919 88.2633 25.3209 88.174 25.4365C88.0848 25.5522 87.9641 25.6431 87.8121 25.7092C87.6634 25.7753 87.4931 25.8084 87.3014 25.8084Z" fill="#FDFDFF"/>
</g>
</g>
<defs>
<clipPath id="clip0_163_8320">
<rect width="89" height="27" fill="white" transform="translate(0 2.5)"/>
</clipPath>
<clipPath id="clip1_163_8320">
<rect width="88.6625" height="21.5176" fill="white" transform="translate(-0.204102 5.24121)"/>
</clipPath>
</defs>
</svg>
