<svg width="19" height="17" viewBox="0 0 19 17" fill="none" xmlns="http://www.w3.org/2000/svg">
<path d="M12.4167 15.75V14.0833C12.4167 13.1993 12.0655 12.3514 11.4404 11.7263C10.8152 11.1012 9.96739 10.75 9.08333 10.75H4.08333C3.19928 10.75 2.35143 11.1012 1.72631 11.7263C1.10119 12.3514 0.75 13.1993 0.75 14.0833V15.75M12.4167 0.856608C13.1315 1.04192 13.7645 1.45933 14.2164 2.04333C14.6683 2.62733 14.9135 3.34485 14.9135 4.08327C14.9135 4.8217 14.6683 5.53922 14.2164 6.12322C13.7645 6.70722 13.1315 7.12463 12.4167 7.30994M17.4167 15.7499V14.0832C17.4161 13.3447 17.1703 12.6272 16.7178 12.0435C16.2653 11.4598 15.6318 11.0429 14.9167 10.8582M9.91667 4.08333C9.91667 5.92428 8.42428 7.41667 6.58333 7.41667C4.74238 7.41667 3.25 5.92428 3.25 4.08333C3.25 2.24238 4.74238 0.75 6.58333 0.75C8.42428 0.75 9.91667 2.24238 9.91667 4.08333Z" stroke="#5F6563" stroke-width="1.5" stroke-linecap="round" stroke-linejoin="round"/>
</svg>
